<?xml version="1.0" encoding="UTF-8" standalone="no"?>
<!-- Created with Inkscape (http://www.inkscape.org/) -->

<svg
   xmlns:dc="http://purl.org/dc/elements/1.1/"
   xmlns:cc="http://creativecommons.org/ns#"
   xmlns:rdf="http://www.w3.org/1999/02/22-rdf-syntax-ns#"
   xmlns:svg="http://www.w3.org/2000/svg"
   xmlns="http://www.w3.org/2000/svg"
   xmlns:sodipodi="http://sodipodi.sourceforge.net/DTD/sodipodi-0.dtd"
   xmlns:inkscape="http://www.inkscape.org/namespaces/inkscape"
   width="100mm"
   height="100mm"
   viewBox="0 0 100 100"
   version="1.1"
   id="svg8"
   inkscape:export-xdpi="32.512001"
   inkscape:export-ydpi="32.512001"
   sodipodi:docname="aliendb_icon.svg"
   inkscape:version="0.92.4 5da689c313, 2019-01-14">
  <defs
     id="defs2" />
  <sodipodi:namedview
     id="base"
     pagecolor="#ffffff"
     bordercolor="#666666"
     borderopacity="1.0"
     inkscape:pageopacity="0.0"
     inkscape:pageshadow="2"
     inkscape:zoom="1.979899"
     inkscape:cx="324.54183"
     inkscape:cy="174.78481"
     inkscape:document-units="mm"
     inkscape:current-layer="layer1"
     showgrid="false"
     units="mm"
     width="100mm"
     inkscape:window-width="2538"
     inkscape:window-height="1394"
     inkscape:window-x="10"
     inkscape:window-y="34"
     inkscape:window-maximized="0" />
  <metadata
     id="metadata5">
    <rdf:RDF>
      <cc:Work
         rdf:about="">
        <dc:format>image/svg+xml</dc:format>
        <dc:type
           rdf:resource="http://purl.org/dc/dcmitype/StillImage" />
        <dc:title></dc:title>
      </cc:Work>
    </rdf:RDF>
  </metadata>
  <g
     inkscape:label="Layer 1"
     inkscape:groupmode="layer"
     id="layer1"
     transform="translate(0,-197)">
    <g
       id="g6036"
       transform="matrix(1.6991388,0,0,1.6991388,3.273683,200.27368)"
       style="fill:#cccccc;fill-opacity:1;stroke:#6f6288;stroke-width:4.90012836;stroke-miterlimit:4;stroke-dasharray:none;stroke-opacity:1">
      <path
         id="path5981"
         d="M 49.930735,10.361525 C 48.88564,6.4898 41.106992,2.68125 27.5,2.68125 13.893007,2.68125 6.1134575,6.4898 5.069265,10.361525 4.993455,10.494193 4.9375,10.639495 4.9375,10.80375 v 0.45125 10.37875 0.45125 0.45125 9.9275 0.45125 0.45125 10.83 c 0,0.146205 0.038807,0.284288 0.1055925,0.407028 C 6.108945,49.021015 15.64476,52.31875 27.5,52.31875 c 11.828165,0 21.348637,-3.284197 22.449687,-7.68569 0.0722,-0.129057 0.112813,-0.27797 0.112813,-0.43681 V 33.36625 32.915 32.46375 22.53625 22.085 21.63375 11.255 10.80375 c 0,-0.164255 -0.05595,-0.309557 -0.131765,-0.442225 z m -1.744533,22.991188 c -0.02527,0.109202 -0.06047,0.217502 -0.10469,0.327607 -0.0361,0.08935 -0.08032,0.178695 -0.129057,0.268043 -0.06047,0.111007 -0.128155,0.222015 -0.208478,0.333022 -0.05956,0.08393 -0.127252,0.166963 -0.197647,0.249993 -0.100178,0.118227 -0.206673,0.236455 -0.327608,0.35378 -0.0731,0.0713 -0.153425,0.141692 -0.23465,0.21299 -0.14801,0.129057 -0.302337,0.257212 -0.474715,0.384465 -0.074,0.05505 -0.153425,0.1083 -0.231942,0.16245 -0.203965,0.14079 -0.416955,0.280677 -0.650703,0.417857 -0.06137,0.037 -0.127252,0.0722 -0.19133,0.1083 -0.268945,0.15162 -0.549622,0.302338 -0.852862,0.448543 -0.03881,0.01895 -0.07942,0.037 -0.11913,0.05505 -0.338438,0.159743 -0.692218,0.316778 -1.070365,0.468398 -0.01083,0.0046 -0.02166,0.0081 -0.03249,0.01263 -2.049578,0.818567 -4.67134,1.507175 -7.726303,1.958425 -0.01534,0.0018 -0.03068,0.0036 -0.04603,0.0064 -0.593845,0.08754 -1.203033,0.165157 -1.828465,0.233747 -0.101983,0.01083 -0.20938,0.01805 -0.312265,0.02888 -0.546013,0.05686 -1.098343,0.109203 -1.666918,0.150718 -0.25992,0.01895 -0.532475,0.02798 -0.796907,0.04422 -0.427785,0.02527 -0.851058,0.05325 -1.289673,0.06859 -0.716585,0.02256 -1.44761,0.037 -2.193977,0.037 -0.746368,0 -1.477393,-0.01444 -2.19488,-0.03971 -0.438615,-0.01534 -0.861888,-0.04422 -1.289673,-0.06859 -0.264432,-0.01534 -0.536987,-0.02527 -0.796907,-0.04422 -0.568575,-0.04152 -1.120905,-0.09386 -1.666918,-0.150717 -0.102885,-0.01083 -0.210282,-0.01805 -0.312265,-0.02888 -0.625432,-0.06859 -1.23462,-0.147108 -1.828465,-0.233748 -0.01534,-0.0018 -0.03069,-0.0036 -0.04603,-0.0063 -3.054963,-0.45125 -5.676725,-1.139857 -7.726303,-1.958425 -0.01083,-0.0036 -0.02166,-0.0081 -0.03249,-0.01264 -0.378147,-0.151715 -0.73283,-0.30875 -1.070365,-0.468492 -0.03881,-0.01895 -0.08032,-0.037 -0.11913,-0.05505 -0.30324,-0.146205 -0.583917,-0.29602 -0.852862,-0.448542 -0.063175,-0.0361 -0.12996,-0.0713 -0.19133,-0.1083 C 9.1386375,35.923033 8.9256475,35.783145 8.7216825,35.642355 8.6440675,35.588205 8.563745,35.534958 8.48974,35.479905 8.3173625,35.352653 8.163035,35.224498 8.015025,35.09544 7.9347025,35.025045 7.8534775,34.95465 7.780375,34.88245 7.65944,34.765125 7.552945,34.6478 7.4527675,34.52867 7.3823725,34.44564 7.314685,34.36261 7.25512,34.278678 7.1757,34.16767 7.1080125,34.056663 7.0466425,33.945655 6.9979075,33.856308 6.9545875,33.76696 6.917585,33.677613 6.8733625,33.56841 6.838165,33.459208 6.812895,33.350005 6.7795025,33.206508 6.7425,33.060303 6.7425,32.915 c 0,-0.101982 0.011732,-0.203965 0.027978,-0.305045 C 6.79304,32.473678 6.780405,32.3374 6.7425,32.208343 v -6.70016 c 0.02527,0.02347 0.056858,0.04603 0.08303,0.06949 0.196745,0.17328 0.3971,0.345658 0.622725,0.511718 3.399717,2.571222 10.19825,4.569357 20.051745,4.569357 9.81198,0 16.593365,-1.98189 20.007522,-4.53777 0.272555,-0.19855 0.518035,-0.403417 0.749075,-0.611895 l 9.03e-4,-9.02e-4 v 6.70016 c -0.03791,0.129057 -0.05054,0.265335 -0.02798,0.401612 0.01715,0.10108 0.02798,0.203063 0.02798,0.305045 0,0.145303 -0.037,0.291508 -0.0713,0.437713 z m 0.0713,-18.67453 v 6.70016 c -0.03791,0.129057 -0.05054,0.265335 -0.02798,0.401612 0.01715,0.10108 0.02798,0.203063 0.02798,0.305045 0,0.145303 -0.037,0.291508 -0.0713,0.437713 -0.02527,0.109202 -0.06047,0.217502 -0.10469,0.327607 -0.0361,0.08935 -0.08032,0.178695 -0.129057,0.268043 -0.06047,0.111007 -0.128155,0.222015 -0.208478,0.333022 -0.05956,0.08393 -0.127252,0.166963 -0.197647,0.249993 -0.100178,0.118227 -0.206673,0.236455 -0.327608,0.35378 -0.0731,0.0713 -0.153425,0.141692 -0.23465,0.21299 -0.14801,0.129057 -0.302337,0.257212 -0.474715,0.384465 -0.074,0.05505 -0.153425,0.1083 -0.231942,0.16245 -0.203965,0.14079 -0.416955,0.280677 -0.650703,0.417857 -0.06137,0.037 -0.127252,0.0722 -0.19133,0.1083 -0.268945,0.15162 -0.549622,0.302338 -0.852862,0.448543 -0.03881,0.01895 -0.07942,0.037 -0.11913,0.05505 -0.338438,0.159743 -0.692218,0.316778 -1.070365,0.468398 -0.01083,0.0046 -0.02166,0.0081 -0.03249,0.01263 -2.049578,0.818567 -4.67134,1.507175 -7.726303,1.958425 -0.01534,0.0018 -0.03068,0.0036 -0.04603,0.0064 -0.593845,0.08754 -1.203033,0.165157 -1.828465,0.233747 -0.101982,0.01083 -0.20938,0.01805 -0.312265,0.02888 -0.546013,0.05686 -1.098342,0.109203 -1.666918,0.150718 -0.259919,0.01895 -0.532475,0.02798 -0.796907,0.04422 -0.427785,0.02527 -0.851058,0.05325 -1.289673,0.06859 -0.716585,0.02256 -1.44761,0.037 -2.193977,0.037 -0.746368,0 -1.477393,-0.01444 -2.19488,-0.03971 -0.438615,-0.01534 -0.861888,-0.04422 -1.289673,-0.06859 -0.264432,-0.01534 -0.536987,-0.02527 -0.796907,-0.04422 -0.568575,-0.04152 -1.120905,-0.09386 -1.666918,-0.150717 -0.102885,-0.01083 -0.210282,-0.01805 -0.312265,-0.02888 -0.625432,-0.06859 -1.23462,-0.147108 -1.828465,-0.233748 -0.01534,-0.0018 -0.03069,-0.0036 -0.04603,-0.0064 -3.054963,-0.45125 -5.676725,-1.139857 -7.726303,-1.958425 -0.01083,-0.0036 -0.02166,-0.0081 -0.03249,-0.01263 -0.378147,-0.15162 -0.73283,-0.308655 -1.070365,-0.468397 -0.03881,-0.01895 -0.08032,-0.037 -0.11913,-0.05505 -0.30324,-0.146205 -0.583917,-0.29602 -0.852862,-0.448542 -0.063175,-0.0361 -0.12996,-0.0713 -0.19133,-0.1083 C 9.1386375,25.093033 8.9256475,24.953145 8.7216825,24.812355 8.6440675,24.758205 8.563745,24.704958 8.48974,24.649905 8.3173625,24.522653 8.163035,24.394498 8.015025,24.26544 7.9347025,24.195045 7.8534775,24.12465 7.780375,24.05245 7.65944,23.935125 7.552945,23.8178 7.4527675,23.69867 7.3823725,23.61564 7.314685,23.53261 7.25512,23.448678 7.1757,23.33767 7.1080125,23.226663 7.0466425,23.115655 6.9979075,23.026308 6.9545875,22.93696 6.917585,22.847613 6.8733625,22.73841 6.838165,22.629208 6.812895,22.520005 6.7795025,22.376508 6.7425,22.230303 6.7425,22.085 c 0,-0.101982 0.011732,-0.203965 0.027978,-0.305045 C 6.79304,21.643678 6.780405,21.5074 6.7425,21.378343 v -6.70016 c 0.1083,0.09837 0.2319425,0.19494 0.3492675,0.29241 0.06498,0.05415 0.1254475,0.1083 0.1940375,0.16245 0.27075,0.21299 0.56316,0.423272 0.8799375,0.62814 0.065882,0.04242 0.1398875,0.08393 0.2084775,0.12635 0.265335,0.165157 0.5460125,0.326705 0.84113,0.485545 0.1092025,0.05866 0.218405,0.116422 0.3312175,0.174182 0.3294125,0.167865 0.6750695,0.331218 1.0387775,0.489155 0.05956,0.02617 0.113715,0.05325 0.174182,0.07852 0.423273,0.179597 0.872718,0.351072 1.340213,0.517132 0.129057,0.04603 0.264432,0.08935 0.3971,0.134473 0.37183,0.125447 0.756295,0.24548 1.154297,0.361902 0.143498,0.04152 0.284288,0.08483 0.431395,0.124545 0.527963,0.146205 1.073073,0.28519 1.645258,0.413345 0.07852,0.01805 0.163352,0.03249 0.242772,0.04964 0.504498,0.110105 1.027948,0.212087 1.565838,0.307752 0.182305,0.03249 0.367317,0.06317 0.553232,0.09386 0.511718,0.08393 1.038778,0.160645 1.579375,0.23104 0.138985,0.01805 0.271653,0.03881 0.412443,0.05596 0.67146,0.08122 1.366385,0.150718 2.080262,0.210283 0.175988,0.01444 0.359195,0.02527 0.53789,0.0379 0.571283,0.04152 1.1552,0.07581 1.752655,0.102885 0.217503,0.0099 0.434103,0.01985 0.656118,0.02798 0.777955,0.02617 1.57035,0.04512 2.391625,0.04512 0.821275,0 1.61367,-0.01895 2.391625,-0.04512 0.221112,-0.0081 0.437712,-0.01805 0.656117,-0.02798 0.597455,-0.02707 1.181373,-0.06137 1.752655,-0.102885 0.178695,-0.01354 0.361,-0.02347 0.53789,-0.0379 0.713878,-0.05866 1.408803,-0.129058 2.080263,-0.210283 0.14079,-0.01715 0.273457,-0.03791 0.412442,-0.05596 0.540598,-0.0704 1.066755,-0.147107 1.579375,-0.23104 0.185915,-0.03069 0.370928,-0.06137 0.553233,-0.09386 0.53789,-0.09567 1.06134,-0.197647 1.565837,-0.307752 0.07942,-0.01715 0.164255,-0.03249 0.242773,-0.04964 0.572185,-0.128155 1.117295,-0.268042 1.645257,-0.413345 0.147108,-0.04061 0.287898,-0.08303 0.431395,-0.124545 0.398003,-0.116422 0.782468,-0.236455 1.154298,-0.361902 0.132667,-0.04513 0.268042,-0.08845 0.3971,-0.134473 0.467495,-0.16606 0.917842,-0.337535 1.340212,-0.517132 0.06047,-0.02527 0.114618,-0.05234 0.174183,-0.07852 0.363707,-0.15884 0.709365,-0.32129 1.038777,-0.489155 0.112813,-0.05776 0.222918,-0.11552 0.331218,-0.174182 0.295117,-0.157938 0.575795,-0.319485 0.84113,-0.485545 0.06859,-0.04242 0.142595,-0.08393 0.208477,-0.12635 0.316778,-0.204868 0.609188,-0.414248 0.879938,-0.62814 0.06769,-0.05415 0.128155,-0.1083 0.194037,-0.16245 0.117325,-0.09747 0.240968,-0.194038 0.349268,-0.29241 z M 27.5,4.48625 c 12.233387,0 20.7575,3.56668 20.7575,6.76875 0,3.20207 -8.524113,6.76875 -20.7575,6.76875 -12.233388,0 -20.7575,-3.56668 -20.7575,-6.76875 0,-3.20207 8.524112,-6.76875 20.7575,-6.76875 z m 20.7575,39.441958 c -0.01264,0.03971 -0.02166,0.08032 -0.02888,0.121837 C 47.716902,47.171793 39.26499,50.51375 27.5,50.51375 15.73501,50.51375 7.2830975,47.171793 6.77138,44.050045 6.76416,44.009433 6.7542325,43.969723 6.7425,43.931818 v -7.593635 c 0.02527,0.02347 0.056858,0.04603 0.08303,0.06949 0.196745,0.17328 0.3971,0.345658 0.622725,0.511718 3.399717,2.571222 10.19825,4.569357 20.051745,4.569357 9.81198,0 16.593365,-1.98189 20.007522,-4.53777 0.272555,-0.19855 0.518035,-0.403417 0.749075,-0.611895 l 9.03e-4,-9.02e-4 z"
         inkscape:connector-curvature="0"
         style="fill:none;fill-opacity:1;stroke:#6f6288;stroke-width:4.90012836;stroke-miterlimit:4;stroke-dasharray:none;stroke-opacity:1" />
      <g
         id="g5983"
         style="fill:#cccccc;fill-opacity:1;stroke:#6f6288;stroke-width:4.90012836;stroke-miterlimit:4;stroke-dasharray:none;stroke-opacity:1">
</g>
      <g
         id="g5985"
         style="fill:#cccccc;fill-opacity:1;stroke:#6f6288;stroke-width:4.90012836;stroke-miterlimit:4;stroke-dasharray:none;stroke-opacity:1">
</g>
      <g
         id="g5987"
         style="fill:#cccccc;fill-opacity:1;stroke:#6f6288;stroke-width:4.90012836;stroke-miterlimit:4;stroke-dasharray:none;stroke-opacity:1">
</g>
      <g
         id="g5989"
         style="fill:#cccccc;fill-opacity:1;stroke:#6f6288;stroke-width:4.90012836;stroke-miterlimit:4;stroke-dasharray:none;stroke-opacity:1">
</g>
      <g
         id="g5991"
         style="fill:#cccccc;fill-opacity:1;stroke:#6f6288;stroke-width:4.90012836;stroke-miterlimit:4;stroke-dasharray:none;stroke-opacity:1">
</g>
      <g
         id="g5993"
         style="fill:#cccccc;fill-opacity:1;stroke:#6f6288;stroke-width:4.90012836;stroke-miterlimit:4;stroke-dasharray:none;stroke-opacity:1">
</g>
      <g
         id="g5995"
         style="fill:#cccccc;fill-opacity:1;stroke:#6f6288;stroke-width:4.90012836;stroke-miterlimit:4;stroke-dasharray:none;stroke-opacity:1">
</g>
      <g
         id="g5997"
         style="fill:#cccccc;fill-opacity:1;stroke:#6f6288;stroke-width:4.90012836;stroke-miterlimit:4;stroke-dasharray:none;stroke-opacity:1">
</g>
      <g
         id="g5999"
         style="fill:#cccccc;fill-opacity:1;stroke:#6f6288;stroke-width:4.90012836;stroke-miterlimit:4;stroke-dasharray:none;stroke-opacity:1">
</g>
      <g
         id="g6001"
         style="fill:#cccccc;fill-opacity:1;stroke:#6f6288;stroke-width:4.90012836;stroke-miterlimit:4;stroke-dasharray:none;stroke-opacity:1">
</g>
      <g
         id="g6003"
         style="fill:#cccccc;fill-opacity:1;stroke:#6f6288;stroke-width:4.90012836;stroke-miterlimit:4;stroke-dasharray:none;stroke-opacity:1">
</g>
      <g
         id="g6005"
         style="fill:#cccccc;fill-opacity:1;stroke:#6f6288;stroke-width:4.90012836;stroke-miterlimit:4;stroke-dasharray:none;stroke-opacity:1">
</g>
      <g
         id="g6007"
         style="fill:#cccccc;fill-opacity:1;stroke:#6f6288;stroke-width:4.90012836;stroke-miterlimit:4;stroke-dasharray:none;stroke-opacity:1">
</g>
      <g
         id="g6009"
         style="fill:#cccccc;fill-opacity:1;stroke:#6f6288;stroke-width:4.90012836;stroke-miterlimit:4;stroke-dasharray:none;stroke-opacity:1">
</g>
      <g
         id="g6011"
         style="fill:#cccccc;fill-opacity:1;stroke:#6f6288;stroke-width:4.90012836;stroke-miterlimit:4;stroke-dasharray:none;stroke-opacity:1">
</g>
    </g>
  </g>
</svg>
